# Blender v2.91.0 OBJ File: 'plane.blend'
# www.blender.org
mtllib pipes_v.mtl
o pipes_v_Cylinder.001
v 0.700000 1.000000 -0.025000
v 0.709031 1.000000 -0.023312
v 0.716842 1.000000 -0.018475
v 0.722379 1.000000 -0.011143
v 0.724893 1.000000 -0.002307
v 0.724046 1.000000 0.006842
v 0.719950 1.000000 0.015066
v 0.713161 1.000000 0.021255
v 0.704594 1.000000 0.024574
v 0.695406 1.000000 0.024574
v 0.686839 1.000000 0.021255
v 0.680050 1.000000 0.015066
v 0.675954 1.000000 0.006842
v 0.675107 1.000000 -0.002307
v 0.677621 1.000000 -0.011143
v 0.683158 1.000000 -0.018475
v 0.690969 1.000000 -0.023312
v 0.700000 -0.000000 -0.025000
v 0.709031 -0.000000 -0.023312
v 0.716842 -0.000000 -0.018475
v 0.722379 -0.000000 -0.011143
v 0.724893 -0.000000 -0.002307
v 0.724046 -0.000000 0.006842
v 0.719950 -0.000000 0.015066
v 0.713161 -0.000000 0.021255
v 0.704594 -0.000000 0.024574
v 0.695406 -0.000000 0.024574
v 0.686839 -0.000000 0.021255
v 0.680050 -0.000000 0.015066
v 0.675954 -0.000000 0.006842
v 0.675107 -0.000000 -0.002307
v 0.677621 -0.000000 -0.011143
v 0.683158 -0.000000 -0.018475
v 0.690969 -0.000000 -0.023312
v -0.700000 1.000000 -0.025000
v -0.709031 1.000000 -0.023312
v -0.716842 1.000000 -0.018475
v -0.722379 1.000000 -0.011143
v -0.724893 1.000000 -0.002307
v -0.724046 1.000000 0.006842
v -0.719950 1.000000 0.015066
v -0.713161 1.000000 0.021255
v -0.704594 1.000000 0.024574
v -0.695406 1.000000 0.024574
v -0.686839 1.000000 0.021255
v -0.680050 1.000000 0.015066
v -0.675954 1.000000 0.006842
v -0.675107 1.000000 -0.002307
v -0.677621 1.000000 -0.011143
v -0.683158 1.000000 -0.018475
v -0.690969 1.000000 -0.023312
v -0.700000 -0.000000 -0.025000
v -0.709031 -0.000000 -0.023312
v -0.716842 -0.000000 -0.018475
v -0.722379 -0.000000 -0.011143
v -0.724893 -0.000000 -0.002307
v -0.724046 -0.000000 0.006842
v -0.719950 -0.000000 0.015066
v -0.713161 -0.000000 0.021255
v -0.704594 -0.000000 0.024574
v -0.695406 -0.000000 0.024574
v -0.686839 -0.000000 0.021255
v -0.680050 -0.000000 0.015066
v -0.675954 -0.000000 0.006842
v -0.675107 -0.000000 -0.002307
v -0.677621 -0.000000 -0.011143
v -0.683158 -0.000000 -0.018475
v -0.690969 -0.000000 -0.023312
vt 1.000000 0.918750
vt 1.000000 1.000000
vt 0.941176 1.000000
vt 0.941177 0.918750
vt 0.882353 1.000000
vt 0.882353 0.918750
vt 0.823529 1.000000
vt 0.823529 0.918750
vt 0.764706 1.000000
vt 0.764706 0.918750
vt 0.705882 1.000000
vt 0.705882 0.918750
vt 0.647059 1.000000
vt 0.647059 0.918750
vt 0.588235 1.000000
vt 0.588235 0.918750
vt 0.529412 1.000000
vt 0.529412 0.918750
vt 0.470588 1.000000
vt 0.470588 0.918750
vt 0.411765 1.000000
vt 0.411765 0.918750
vt 0.352941 1.000000
vt 0.352941 0.918750
vt 0.294118 1.000000
vt 0.294118 0.918750
vt 0.235294 1.000000
vt 0.235294 0.918750
vt 0.176471 1.000000
vt 0.176471 0.918750
vt 0.117647 1.000000
vt 0.117647 0.918750
vt 0.058824 1.000000
vt 0.058824 0.918750
vt 0.000000 1.000000
vt 0.000000 0.918750
vt 1.000000 0.918750
vt 0.941177 0.918750
vt 0.941176 1.000000
vt 1.000000 1.000000
vt 0.882353 0.918750
vt 0.882353 1.000000
vt 0.823529 0.918750
vt 0.823529 1.000000
vt 0.764706 0.918750
vt 0.764706 1.000000
vt 0.705882 0.918750
vt 0.705882 1.000000
vt 0.647059 0.918750
vt 0.647059 1.000000
vt 0.588235 0.918750
vt 0.588235 1.000000
vt 0.529412 0.918750
vt 0.529412 1.000000
vt 0.470588 0.918750
vt 0.470588 1.000000
vt 0.411765 0.918750
vt 0.411765 1.000000
vt 0.352941 0.918750
vt 0.352941 1.000000
vt 0.294118 0.918750
vt 0.294118 1.000000
vt 0.235294 0.918750
vt 0.235294 1.000000
vt 0.176471 0.918750
vt 0.176471 1.000000
vt 0.117647 0.918750
vt 0.117647 1.000000
vt 0.058824 0.918750
vt 0.058824 1.000000
vt 0.000000 0.918750
vt 0.000000 1.000000
vn 0.0000 0.0000 -1.0000
vn 0.3612 0.0000 -0.9325
vn 0.6737 0.0000 -0.7390
vn 0.8951 0.0000 -0.4457
vn 0.9957 0.0000 -0.0923
vn 0.9618 0.0000 0.2737
vn 0.7980 0.0000 0.6026
vn 0.5264 0.0000 0.8502
vn 0.1837 0.0000 0.9830
vn -0.1837 0.0000 0.9830
vn -0.5264 0.0000 0.8502
vn -0.7980 0.0000 0.6026
vn -0.9618 0.0000 0.2737
vn -0.9957 0.0000 -0.0923
vn -0.8951 0.0000 -0.4457
vn -0.6737 0.0000 -0.7390
vn -0.3612 0.0000 -0.9325
usemtl None
s 1
f 18/1/1 1/2/1 2/3/2 19/4/2
f 19/4/2 2/3/2 3/5/3 20/6/3
f 20/6/3 3/5/3 4/7/4 21/8/4
f 21/8/4 4/7/4 5/9/5 22/10/5
f 22/10/5 5/9/5 6/11/6 23/12/6
f 23/12/6 6/11/6 7/13/7 24/14/7
f 24/14/7 7/13/7 8/15/8 25/16/8
f 25/16/8 8/15/8 9/17/9 26/18/9
f 26/18/9 9/17/9 10/19/10 27/20/10
f 27/20/10 10/19/10 11/21/11 28/22/11
f 28/22/11 11/21/11 12/23/12 29/24/12
f 29/24/12 12/23/12 13/25/13 30/26/13
f 30/26/13 13/25/13 14/27/14 31/28/14
f 31/28/14 14/27/14 15/29/15 32/30/15
f 32/30/15 15/29/15 16/31/16 33/32/16
f 33/32/16 16/31/16 17/33/17 34/34/17
f 34/34/17 17/33/17 1/35/1 18/36/1
f 52/37/1 53/38/17 36/39/17 35/40/1
f 53/38/17 54/41/16 37/42/16 36/39/17
f 54/41/16 55/43/15 38/44/15 37/42/16
f 55/43/15 56/45/14 39/46/14 38/44/15
f 56/45/14 57/47/13 40/48/13 39/46/14
f 57/47/13 58/49/12 41/50/12 40/48/13
f 58/49/12 59/51/11 42/52/11 41/50/12
f 59/51/11 60/53/10 43/54/10 42/52/11
f 60/53/10 61/55/9 44/56/9 43/54/10
f 61/55/9 62/57/8 45/58/8 44/56/9
f 62/57/8 63/59/7 46/60/7 45/58/8
f 63/59/7 64/61/6 47/62/6 46/60/7
f 64/61/6 65/63/5 48/64/5 47/62/6
f 65/63/5 66/65/4 49/66/4 48/64/5
f 66/65/4 67/67/3 50/68/3 49/66/4
f 67/67/3 68/69/2 51/70/2 50/68/3
f 68/69/2 52/71/1 35/72/1 51/70/2
