# Blender v2.91.0 OBJ File: 'plane.blend'
# www.blender.org
mtllib pipes_h.mtl
o pipes_h_Cylinder.003
v -0.700000 0.000000 -0.025000
v -0.700000 -0.009031 -0.023312
v -0.700000 -0.016842 -0.018475
v -0.700000 -0.022379 -0.011143
v -0.700000 -0.024893 -0.002307
v -0.700000 -0.024046 0.006842
v -0.700000 -0.019950 0.015066
v -0.700000 -0.013161 0.021255
v -0.700000 -0.004594 0.024574
v -0.700000 0.004594 0.024574
v -0.700000 0.013161 0.021255
v -0.700000 0.019950 0.015066
v -0.700000 0.024046 0.006842
v -0.700000 0.024893 -0.002307
v -0.700000 0.022379 -0.011143
v -0.700000 0.016842 -0.018475
v -0.700000 0.009031 -0.023312
v 0.700000 0.000000 -0.025000
v 0.700000 -0.009031 -0.023312
v 0.700000 -0.016842 -0.018475
v 0.700000 -0.022379 -0.011143
v 0.700000 -0.024893 -0.002307
v 0.700000 -0.024046 0.006842
v 0.700000 -0.019950 0.015066
v 0.700000 -0.013161 0.021255
v 0.700000 -0.004594 0.024574
v 0.700000 0.004594 0.024574
v 0.700000 0.013161 0.021255
v 0.700000 0.019950 0.015066
v 0.700000 0.024046 0.006842
v 0.700000 0.024893 -0.002307
v 0.700000 0.022379 -0.011143
v 0.700000 0.016842 -0.018475
v 0.700000 0.009031 -0.023312
vt 1.000000 0.918750
vt 0.941177 0.918750
vt 0.941176 1.000000
vt 1.000000 1.000000
vt 0.882353 0.918750
vt 0.882353 1.000000
vt 0.823529 0.918750
vt 0.823529 1.000000
vt 0.764706 0.918750
vt 0.764706 1.000000
vt 0.705882 0.918750
vt 0.705882 1.000000
vt 0.647059 0.918750
vt 0.647059 1.000000
vt 0.588235 0.918750
vt 0.588235 1.000000
vt 0.529412 0.918750
vt 0.529412 1.000000
vt 0.470588 0.918750
vt 0.470588 1.000000
vt 0.411765 0.918750
vt 0.411765 1.000000
vt 0.352941 0.918750
vt 0.352941 1.000000
vt 0.294118 0.918750
vt 0.294118 1.000000
vt 0.235294 0.918750
vt 0.235294 1.000000
vt 0.176471 0.918750
vt 0.176471 1.000000
vt 0.117647 0.918750
vt 0.117647 1.000000
vt 0.058824 0.918750
vt 0.058824 1.000000
vt 0.000000 0.918750
vt 0.000000 1.000000
vn 0.6680 0.0000 -0.7442
vn 0.6680 -0.2688 -0.6939
vn 0.0000 -0.3612 -0.9325
vn 0.0000 0.0000 -1.0000
vn 0.6680 -0.5013 -0.5499
vn 0.0000 -0.6737 -0.7390
vn 0.6680 -0.6661 -0.3317
vn 0.0000 -0.8951 -0.4457
vn 0.6680 -0.7410 -0.0686
vn 0.0000 -0.9957 -0.0923
vn 0.6680 -0.7158 0.2037
vn 0.0000 -0.9618 0.2737
vn 0.6680 -0.5938 0.4484
vn 0.0000 -0.7980 0.6026
vn 0.6680 -0.3917 0.6327
vn 0.0000 -0.5264 0.8502
vn 0.6680 -0.1367 0.7315
vn 0.0000 -0.1837 0.9830
vn 0.6680 0.1367 0.7315
vn 0.0000 0.1837 0.9830
vn 0.6680 0.3917 0.6327
vn 0.0000 0.5264 0.8502
vn 0.6680 0.5939 0.4484
vn 0.0000 0.7980 0.6026
vn 0.6680 0.7158 0.2036
vn 0.0000 0.9618 0.2737
vn 0.6680 0.7410 -0.0686
vn 0.0000 0.9957 -0.0923
vn 0.6680 0.6661 -0.3317
vn 0.0000 0.8951 -0.4457
vn 0.6680 0.5013 -0.5499
vn 0.0000 0.6737 -0.7390
vn 0.6680 0.2688 -0.6939
vn 0.0000 0.3612 -0.9325
usemtl None
s 1
f 18/1/1 19/2/2 2/3/3 1/4/4
f 19/2/2 20/5/5 3/6/6 2/3/3
f 20/5/5 21/7/7 4/8/8 3/6/6
f 21/7/7 22/9/9 5/10/10 4/8/8
f 22/9/9 23/11/11 6/12/12 5/10/10
f 23/11/11 24/13/13 7/14/14 6/12/12
f 24/13/13 25/15/15 8/16/16 7/14/14
f 25/15/15 26/17/17 9/18/18 8/16/16
f 26/17/17 27/19/19 10/20/20 9/18/18
f 27/19/19 28/21/21 11/22/22 10/20/20
f 28/21/21 29/23/23 12/24/24 11/22/22
f 29/23/23 30/25/25 13/26/26 12/24/24
f 30/25/25 31/27/27 14/28/28 13/26/26
f 31/27/27 32/29/29 15/30/30 14/28/28
f 32/29/29 33/31/31 16/32/32 15/30/30
f 33/31/31 34/33/33 17/34/34 16/32/32
f 34/33/33 18/35/1 1/36/4 17/34/34
f 34/33/33 33/31/31 32/29/29 31/27/27 30/25/25 29/23/23 28/21/21 27/19/19 26/17/17 25/15/15 24/13/13 23/11/11 22/9/9 21/7/7 20/5/5 19/2/2 18/1/1
