# Blender v2.91.0 OBJ File: 'plane.blend'
# www.blender.org
mtllib pipes_end.mtl
o pipes_end_Cylinder
v 0.700000 0.000000 -0.048702
v 0.700000 0.100000 -0.025000
v 0.717667 0.000000 -0.045400
v 0.709031 0.100000 -0.023312
v 0.732948 0.000000 -0.035938
v 0.716842 0.100000 -0.018475
v 0.743779 0.000000 -0.021596
v 0.722379 0.100000 -0.011143
v 0.748697 0.000000 -0.004309
v 0.724893 0.100000 -0.002307
v 0.747039 0.000000 0.013587
v 0.724046 0.100000 0.006842
v 0.739028 0.000000 0.029676
v 0.719950 0.100000 0.015066
v 0.725746 0.000000 0.041784
v 0.713161 0.100000 0.021255
v 0.708986 0.000000 0.048276
v 0.704594 0.100000 0.024574
v 0.691014 0.000000 0.048276
v 0.695406 0.100000 0.024574
v 0.674254 0.000000 0.041784
v 0.686839 0.100000 0.021255
v 0.660972 0.000000 0.029676
v 0.680050 0.100000 0.015066
v 0.652961 0.000000 0.013587
v 0.675954 0.100000 0.006842
v 0.651303 0.000000 -0.004309
v 0.675107 0.100000 -0.002307
v 0.656221 0.000000 -0.021596
v 0.677621 0.100000 -0.011143
v 0.667053 0.000000 -0.035938
v 0.683158 0.100000 -0.018475
v 0.682333 0.000000 -0.045400
v 0.690969 0.100000 -0.023312
v 0.700000 0.083750 -0.025000
v 0.709031 0.083750 -0.023312
v 0.716842 0.083750 -0.018475
v 0.722379 0.083750 -0.011143
v 0.724893 0.083750 -0.002307
v 0.724046 0.083750 0.006842
v 0.719950 0.083750 0.015066
v 0.713161 0.083750 0.021255
v 0.704594 0.083750 0.024574
v 0.695406 0.083750 0.024574
v 0.686839 0.083750 0.021255
v 0.680050 0.083750 0.015066
v 0.675954 0.083750 0.006842
v 0.675107 0.083750 -0.002307
v 0.677621 0.083750 -0.011143
v 0.683158 0.083750 -0.018475
v 0.690969 0.083750 -0.023312
v 0.714374 0.053070 -0.036978
v 0.726807 0.053070 -0.029280
v 0.735619 0.053070 -0.017610
v 0.739621 0.053070 -0.003546
v 0.738272 0.053070 0.011015
v 0.731754 0.053070 0.024105
v 0.720947 0.053070 0.033957
v 0.707312 0.053070 0.039239
v 0.692688 0.053070 0.039239
v 0.679053 0.053070 0.033957
v 0.668246 0.053070 0.024105
v 0.661728 0.053070 0.011015
v 0.660379 0.053070 -0.003546
v 0.664381 0.053070 -0.017610
v 0.673193 0.053070 -0.029280
v 0.685626 0.053070 -0.036978
v 0.700000 0.053070 -0.039665
v -0.700000 0.000000 -0.048702
v -0.700000 0.100000 -0.025000
v -0.717667 0.000000 -0.045400
v -0.709031 0.100000 -0.023312
v -0.732948 0.000000 -0.035938
v -0.716842 0.100000 -0.018475
v -0.743779 0.000000 -0.021596
v -0.722379 0.100000 -0.011143
v -0.748697 0.000000 -0.004309
v -0.724893 0.100000 -0.002307
v -0.747039 0.000000 0.013587
v -0.724046 0.100000 0.006842
v -0.739028 0.000000 0.029676
v -0.719950 0.100000 0.015066
v -0.725746 0.000000 0.041784
v -0.713161 0.100000 0.021255
v -0.708986 0.000000 0.048276
v -0.704594 0.100000 0.024574
v -0.691014 0.000000 0.048276
v -0.695406 0.100000 0.024574
v -0.674254 0.000000 0.041784
v -0.686839 0.100000 0.021255
v -0.660972 0.000000 0.029676
v -0.680050 0.100000 0.015066
v -0.652961 0.000000 0.013587
v -0.675954 0.100000 0.006842
v -0.651303 0.000000 -0.004309
v -0.675107 0.100000 -0.002307
v -0.656221 0.000000 -0.021596
v -0.677621 0.100000 -0.011143
v -0.667053 0.000000 -0.035938
v -0.683158 0.100000 -0.018475
v -0.682333 0.000000 -0.045400
v -0.690969 0.100000 -0.023312
v -0.700000 0.083750 -0.025000
v -0.709031 0.083750 -0.023312
v -0.716842 0.083750 -0.018475
v -0.722379 0.083750 -0.011143
v -0.724893 0.083750 -0.002307
v -0.724046 0.083750 0.006842
v -0.719950 0.083750 0.015066
v -0.713161 0.083750 0.021255
v -0.704594 0.083750 0.024574
v -0.695406 0.083750 0.024574
v -0.686839 0.083750 0.021255
v -0.680050 0.083750 0.015066
v -0.675954 0.083750 0.006842
v -0.675107 0.083750 -0.002307
v -0.677621 0.083750 -0.011143
v -0.683158 0.083750 -0.018475
v -0.690969 0.083750 -0.023312
v -0.714374 0.053070 -0.036978
v -0.726807 0.053070 -0.029280
v -0.735619 0.053070 -0.017610
v -0.739621 0.053070 -0.003546
v -0.738272 0.053070 0.011015
v -0.731754 0.053070 0.024105
v -0.720947 0.053070 0.033957
v -0.707312 0.053070 0.039239
v -0.692688 0.053070 0.039239
v -0.679053 0.053070 0.033957
v -0.668246 0.053070 0.024105
v -0.661728 0.053070 0.011015
v -0.660379 0.053070 -0.003546
v -0.664381 0.053070 -0.017610
v -0.673193 0.053070 -0.029280
v -0.685626 0.053070 -0.036978
v -0.700000 0.053070 -0.039665
vt 1.000000 0.918750
vt 1.000000 1.000000
vt 0.941176 1.000000
vt 0.941177 0.918750
vt 0.882353 1.000000
vt 0.882353 0.918750
vt 0.823529 1.000000
vt 0.823529 0.918750
vt 0.764706 1.000000
vt 0.764706 0.918750
vt 0.705882 1.000000
vt 0.705882 0.918750
vt 0.647059 1.000000
vt 0.647059 0.918750
vt 0.588235 1.000000
vt 0.588235 0.918750
vt 0.529412 1.000000
vt 0.529412 0.918750
vt 0.470588 1.000000
vt 0.470588 0.918750
vt 0.411765 1.000000
vt 0.411765 0.918750
vt 0.352941 1.000000
vt 0.352941 0.918750
vt 0.294118 1.000000
vt 0.294118 0.918750
vt 0.235294 1.000000
vt 0.235294 0.918750
vt 0.176471 1.000000
vt 0.176471 0.918750
vt 0.117647 1.000000
vt 0.117647 0.918750
vt 0.058824 1.000000
vt 0.058824 0.918750
vt 0.000000 1.000000
vt 0.000000 0.918750
vt 0.058824 0.765348
vt 0.000000 0.765348
vt 0.117647 0.765348
vt 0.176471 0.765348
vt 0.235294 0.765348
vt 0.294118 0.765348
vt 0.352941 0.765348
vt 0.411765 0.765348
vt 0.470588 0.765348
vt 0.529412 0.765348
vt 0.588235 0.765348
vt 0.647059 0.765348
vt 0.705882 0.765348
vt 0.764706 0.765348
vt 0.823529 0.765348
vt 0.882353 0.765348
vt 0.941176 0.765348
vt 1.000000 0.765348
vt 1.000000 0.500000
vt 0.941176 0.500000
vt 0.882353 0.500000
vt 0.823529 0.500000
vt 0.764706 0.500000
vt 0.705882 0.500000
vt 0.647059 0.500000
vt 0.588235 0.500000
vt 0.529412 0.500000
vt 0.470588 0.500000
vt 0.411765 0.500000
vt 0.352941 0.500000
vt 0.294118 0.500000
vt 0.235294 0.500000
vt 0.176471 0.500000
vt 0.117647 0.500000
vt 0.058824 0.500000
vt 0.000000 0.500000
vt 1.000000 0.918750
vt 0.941177 0.918750
vt 0.941176 1.000000
vt 1.000000 1.000000
vt 0.882353 0.918750
vt 0.882353 1.000000
vt 0.823529 0.918750
vt 0.823529 1.000000
vt 0.764706 0.918750
vt 0.764706 1.000000
vt 0.705882 0.918750
vt 0.705882 1.000000
vt 0.647059 0.918750
vt 0.647059 1.000000
vt 0.588235 0.918750
vt 0.588235 1.000000
vt 0.529412 0.918750
vt 0.529412 1.000000
vt 0.470588 0.918750
vt 0.470588 1.000000
vt 0.411765 0.918750
vt 0.411765 1.000000
vt 0.352941 0.918750
vt 0.352941 1.000000
vt 0.294118 0.918750
vt 0.294118 1.000000
vt 0.235294 0.918750
vt 0.235294 1.000000
vt 0.176471 0.918750
vt 0.176471 1.000000
vt 0.117647 0.918750
vt 0.117647 1.000000
vt 0.058824 0.918750
vt 0.058824 1.000000
vt 0.000000 0.918750
vt 0.000000 1.000000
vt 0.058824 0.765348
vt 0.000000 0.765348
vt 0.117647 0.765348
vt 0.176471 0.765348
vt 0.235294 0.765348
vt 0.294118 0.765348
vt 0.352941 0.765348
vt 0.411765 0.765348
vt 0.470588 0.765348
vt 0.529412 0.765348
vt 0.588235 0.765348
vt 0.647059 0.765348
vt 0.705882 0.765348
vt 0.764706 0.765348
vt 0.823529 0.765348
vt 0.882353 0.765348
vt 0.941176 0.765348
vt 1.000000 0.765348
vt 1.000000 0.500000
vt 0.941176 0.500000
vt 0.882353 0.500000
vt 0.823529 0.500000
vt 0.764706 0.500000
vt 0.705882 0.500000
vt 0.647059 0.500000
vt 0.588235 0.500000
vt 0.529412 0.500000
vt 0.470588 0.500000
vt 0.411765 0.500000
vt 0.352941 0.500000
vt 0.294118 0.500000
vt 0.235294 0.500000
vt 0.176471 0.500000
vt 0.117647 0.500000
vt 0.058824 0.500000
vt 0.000000 0.500000
vn 0.0000 0.2269 -0.9739
vn 0.0000 0.0000 -1.0000
vn 0.3612 0.0000 -0.9325
vn 0.3517 0.2270 -0.9081
vn 0.6737 0.0000 -0.7390
vn 0.6559 0.2273 -0.7197
vn 0.8951 0.0000 -0.4457
vn 0.8715 0.2278 -0.4342
vn 0.9957 0.0000 -0.0923
vn 0.9694 0.2284 -0.0900
vn 0.9618 0.0000 0.2737
vn 0.9363 0.2290 0.2662
vn 0.7980 0.0000 0.6026
vn 0.7768 0.2296 0.5864
vn 0.5264 0.0000 0.8502
vn 0.5124 0.2300 0.8273
vn 0.1837 0.0000 0.9830
vn 0.1788 0.2303 0.9565
vn -0.1837 0.0000 0.9830
vn -0.1788 0.2303 0.9565
vn -0.5264 0.0000 0.8502
vn -0.5124 0.2300 0.8273
vn -0.7980 0.0000 0.6026
vn -0.7768 0.2296 0.5864
vn -0.9618 0.0000 0.2737
vn -0.9363 0.2290 0.2662
vn -0.9957 0.0000 -0.0923
vn -0.9694 0.2284 -0.0900
vn -0.8951 0.0000 -0.4457
vn -0.8715 0.2278 -0.4342
vn -0.6737 0.0000 -0.7390
vn -0.6559 0.2273 -0.7197
vn -0.3612 0.0000 -0.9325
vn -0.3517 0.2270 -0.9081
vn -0.3448 0.2980 -0.8901
vn 0.0000 0.2979 -0.9546
vn -0.6430 0.2985 -0.7053
vn -0.8542 0.2991 -0.4252
vn -0.9499 0.2999 -0.0879
vn -0.9173 0.3007 0.2611
vn -0.7609 0.3014 0.5746
vn -0.5018 0.3020 0.8105
vn -0.1751 0.3023 0.9370
vn 0.1751 0.3023 0.9370
vn 0.5018 0.3020 0.8105
vn 0.7609 0.3014 0.5746
vn 0.9173 0.3007 0.2611
vn 0.9499 0.2999 -0.0879
vn 0.8542 0.2991 -0.4252
vn 0.6430 0.2985 -0.7053
vn 0.3448 0.2980 -0.8901
vn 0.0000 0.1679 -0.9858
vn 0.3562 0.1679 -0.9192
vn 0.6641 0.1682 -0.7284
vn 0.8824 0.1686 -0.4392
vn 0.9814 0.1691 -0.0908
vn 0.9478 0.1697 0.2698
vn 0.7863 0.1701 0.5940
vn 0.5186 0.1704 0.8378
vn 0.1810 0.1706 0.9685
vn -0.1810 0.1706 0.9685
vn -0.5186 0.1704 0.8378
vn -0.7863 0.1701 0.5940
vn -0.9478 0.1697 0.2698
vn -0.9814 0.1691 -0.0908
vn -0.8824 0.1686 -0.4392
vn -0.6641 0.1682 -0.7284
vn -0.3562 0.1679 -0.9192
usemtl None
s 1
f 35/1/1 2/2/2 4/3/3 36/4/4
f 36/4/4 4/3/3 6/5/5 37/6/6
f 37/6/6 6/5/5 8/7/7 38/8/8
f 38/8/8 8/7/7 10/9/9 39/10/10
f 39/10/10 10/9/9 12/11/11 40/12/12
f 40/12/12 12/11/11 14/13/13 41/14/14
f 41/14/14 14/13/13 16/15/15 42/16/16
f 42/16/16 16/15/15 18/17/17 43/18/18
f 43/18/18 18/17/17 20/19/19 44/20/20
f 44/20/20 20/19/19 22/21/21 45/22/22
f 45/22/22 22/21/21 24/23/23 46/24/24
f 46/24/24 24/23/23 26/25/25 47/26/26
f 47/26/26 26/25/25 28/27/27 48/28/28
f 48/28/28 28/27/27 30/29/29 49/30/30
f 49/30/30 30/29/29 32/31/31 50/32/32
f 50/32/32 32/31/31 34/33/33 51/34/34
f 51/34/34 34/33/33 2/35/2 35/36/1
f 67/37/35 51/34/34 35/36/1 68/38/36
f 66/39/37 50/32/32 51/34/34 67/37/35
f 65/40/38 49/30/30 50/32/32 66/39/37
f 64/41/39 48/28/28 49/30/30 65/40/38
f 63/42/40 47/26/26 48/28/28 64/41/39
f 62/43/41 46/24/24 47/26/26 63/42/40
f 61/44/42 45/22/22 46/24/24 62/43/41
f 60/45/43 44/20/20 45/22/22 61/44/42
f 59/46/44 43/18/18 44/20/20 60/45/43
f 58/47/45 42/16/16 43/18/18 59/46/44
f 57/48/46 41/14/14 42/16/16 58/47/45
f 56/49/47 40/12/12 41/14/14 57/48/46
f 55/50/48 39/10/10 40/12/12 56/49/47
f 54/51/49 38/8/8 39/10/10 55/50/48
f 53/52/50 37/6/6 38/8/8 54/51/49
f 52/53/51 36/4/4 37/6/6 53/52/50
f 68/54/36 35/1/1 36/4/4 52/53/51
f 1/55/52 68/54/36 52/53/51 3/56/53
f 3/56/53 52/53/51 53/52/50 5/57/54
f 5/57/54 53/52/50 54/51/49 7/58/55
f 7/58/55 54/51/49 55/50/48 9/59/56
f 9/59/56 55/50/48 56/49/47 11/60/57
f 11/60/57 56/49/47 57/48/46 13/61/58
f 13/61/58 57/48/46 58/47/45 15/62/59
f 15/62/59 58/47/45 59/46/44 17/63/60
f 17/63/60 59/46/44 60/45/43 19/64/61
f 19/64/61 60/45/43 61/44/42 21/65/62
f 21/65/62 61/44/42 62/43/41 23/66/63
f 23/66/63 62/43/41 63/42/40 25/67/64
f 25/67/64 63/42/40 64/41/39 27/68/65
f 27/68/65 64/41/39 65/40/38 29/69/66
f 29/69/66 65/40/38 66/39/37 31/70/67
f 31/70/67 66/39/37 67/37/35 33/71/68
f 33/71/68 67/37/35 68/38/36 1/72/52
f 103/73/1 104/74/34 72/75/33 70/76/2
f 104/74/34 105/77/32 74/78/31 72/75/33
f 105/77/32 106/79/30 76/80/29 74/78/31
f 106/79/30 107/81/28 78/82/27 76/80/29
f 107/81/28 108/83/26 80/84/25 78/82/27
f 108/83/26 109/85/24 82/86/23 80/84/25
f 109/85/24 110/87/22 84/88/21 82/86/23
f 110/87/22 111/89/20 86/90/19 84/88/21
f 111/89/20 112/91/18 88/92/17 86/90/19
f 112/91/18 113/93/16 90/94/15 88/92/17
f 113/93/16 114/95/14 92/96/13 90/94/15
f 114/95/14 115/97/12 94/98/11 92/96/13
f 115/97/12 116/99/10 96/100/9 94/98/11
f 116/99/10 117/101/8 98/102/7 96/100/9
f 117/101/8 118/103/6 100/104/5 98/102/7
f 118/103/6 119/105/4 102/106/3 100/104/5
f 119/105/4 103/107/1 70/108/2 102/106/3
f 135/109/51 136/110/36 103/107/1 119/105/4
f 134/111/50 135/109/51 119/105/4 118/103/6
f 133/112/49 134/111/50 118/103/6 117/101/8
f 132/113/48 133/112/49 117/101/8 116/99/10
f 131/114/47 132/113/48 116/99/10 115/97/12
f 130/115/46 131/114/47 115/97/12 114/95/14
f 129/116/45 130/115/46 114/95/14 113/93/16
f 128/117/44 129/116/45 113/93/16 112/91/18
f 127/118/43 128/117/44 112/91/18 111/89/20
f 126/119/42 127/118/43 111/89/20 110/87/22
f 125/120/41 126/119/42 110/87/22 109/85/24
f 124/121/40 125/120/41 109/85/24 108/83/26
f 123/122/39 124/121/40 108/83/26 107/81/28
f 122/123/38 123/122/39 107/81/28 106/79/30
f 121/124/37 122/123/38 106/79/30 105/77/32
f 120/125/35 121/124/37 105/77/32 104/74/34
f 136/126/36 120/125/35 104/74/34 103/73/1
f 69/127/52 71/128/68 120/125/35 136/126/36
f 71/128/68 73/129/67 121/124/37 120/125/35
f 73/129/67 75/130/66 122/123/38 121/124/37
f 75/130/66 77/131/65 123/122/39 122/123/38
f 77/131/65 79/132/64 124/121/40 123/122/39
f 79/132/64 81/133/63 125/120/41 124/121/40
f 81/133/63 83/134/62 126/119/42 125/120/41
f 83/134/62 85/135/61 127/118/43 126/119/42
f 85/135/61 87/136/60 128/117/44 127/118/43
f 87/136/60 89/137/59 129/116/45 128/117/44
f 89/137/59 91/138/58 130/115/46 129/116/45
f 91/138/58 93/139/57 131/114/47 130/115/46
f 93/139/57 95/140/56 132/113/48 131/114/47
f 95/140/56 97/141/55 133/112/49 132/113/48
f 97/141/55 99/142/54 134/111/50 133/112/49
f 99/142/54 101/143/53 135/109/51 134/111/50
f 101/143/53 69/144/52 136/110/36 135/109/51
